<svg id="图层_1" data-name="图层 1" xmlns="http://www.w3.org/2000/svg" viewBox="0 0 215.38 55.2"><defs><style>.cls-1{fill:#f4d064;}.cls-2{fill:#f0c43f;}.cls-3{fill:#f7dd91;}.cls-4{fill:#f4d574;}.cls-5{fill:#fff;}.cls-6{fill:#eee;}.cls-7{fill:#282828;}.cls-8{fill:#060001;}.cls-9{fill:#090305;}</style></defs><path class="cls-1" d="M134,223.8h37.45a8.88,8.88,0,0,1,8.88,8.87v37.46a8.88,8.88,0,0,1-8.88,8.87H134a8.87,8.87,0,0,1-8.87-8.87V232.67A8.86,8.86,0,0,1,134,223.8Zm0,0" transform="translate(-125.17 -223.8)"/><path class="cls-2" d="M171.49,223.8H153.25V279h18.24a8.87,8.87,0,0,0,8.87-8.87V232.67a8.87,8.87,0,0,0-8.87-8.87Zm0,0" transform="translate(-125.17 -223.8)"/><rect class="cls-3" x="12.81" width="1.97" height="55.19"/><rect class="cls-4" x="41.39" width="1.97" height="55.19"/><path class="cls-3" d="M125.17,267.17v-2h28.08v2Zm0-14.3v-2h28.08v2Zm0-14.29v-2h28.08v2Zm0,0" transform="translate(-125.17 -223.8)"/><path class="cls-4" d="M153.5,267.17v-2h26.86v2Zm0-14.3v-2h26.86v2Zm0-14.29v-2h26.86v2Zm0,0" transform="translate(-125.17 -223.8)"/><path class="cls-5" d="M139,233.16a4.52,4.52,0,1,1-4.44,4.52,4.48,4.48,0,0,1,4.44-4.52Zm0,14.62a4.52,4.52,0,1,1-4.44,4.52,4.48,4.48,0,0,1,4.44-4.52Zm0,0" transform="translate(-125.17 -223.8)"/><path class="cls-6" d="M143.4,237.68a4.48,4.48,0,0,0-4.43-4.52v9a4.46,4.46,0,0,0,4.43-4.51Zm0,14.62a4.48,4.48,0,0,0-4.43-4.52v9a4.48,4.48,0,0,0,4.43-4.52Zm0,0" transform="translate(-125.17 -223.8)"/><path class="cls-7" d="M167.55,247.46a4.35,4.35,0,1,1-4.43,4.35,4.39,4.39,0,0,1,4.43-4.35Zm0,14.45a4.36,4.36,0,1,1-4.43,4.35,4.39,4.39,0,0,1,4.43-4.35Zm0,0" transform="translate(-125.17 -223.8)"/><path class="cls-8" d="M172,251.81a4.38,4.38,0,0,0-4.43-4.35v8.7a4.38,4.38,0,0,0,4.43-4.35Zm0,14.45a4.39,4.39,0,0,0-4.43-4.35v8.71a4.39,4.39,0,0,0,4.43-4.36Zm0,0" transform="translate(-125.17 -223.8)"/><rect class="cls-3" x="27.1" width="1.97" height="55.19"/><rect class="cls-4" x="28.09" width="0.98" height="55.19"/><path class="cls-9" d="M205,240.73a2.87,2.87,0,0,1-.65,1.88,11,11,0,0,1-2.07,1.6c1.85,1,3.3,2.07,3.3,4.35,0,2.67-2.58,4.2-4.53,4.2-2.34,0-4.32-1.48-4.29-4,0-1.78,1.05-2.83,3.37-4.08-1.63-.8-2.8-2-2.8-3.6a3.93,3.93,0,0,1,4-3.79A3.53,3.53,0,0,1,205,240.73Zm-.65,8.18c0-1.9-2-3.15-3.8-4a4.05,4.05,0,0,0-2.42,3.72c0,2.33,1.42,3.58,3.25,3.58C202.88,252.21,204.35,251.21,204.35,248.91Zm-5.8-8.53c0,2.05,1.63,2.78,3.35,3.6a3.81,3.81,0,0,0,1.8-3.2c0-2.1-1.15-2.92-2.55-2.92A2.38,2.38,0,0,0,198.55,240.38Z" transform="translate(-125.17 -223.8)"/><path class="cls-9" d="M213.13,252.13c2.15-.1,2.35-.52,2.35-2.5v-9.95c0-2,0-2.37-2.2-2.47v-.37h5.92c1.58,0,5.45.2,5.45,4.34,0,3.65-3.47,5.15-5.82,4.9l-2-.55v4.15c0,1.95.17,2.3,2.72,2.45v.35h-6.42Zm3.7-7.15a5,5,0,0,0,2.12.38c2.23,0,4.05-1.15,4.05-4.05,0-2.73-1.57-4-4.65-4a6.2,6.2,0,0,0-1.27.06c-.18,0-.25.1-.25.62Z" transform="translate(-125.17 -223.8)"/><path class="cls-9" d="M229.38,248.46c0,2.5,1.2,3.15,2.6,3.15a4.79,4.79,0,0,0,3.25-1.55v-5.5c0-1.48-.35-1.58-1.25-1.75l-.95-.15v-.28a18,18,0,0,0,3.4-.45v8.15c0,1.25.27,1.38,1.25,1.45l.75.05v.35a15.14,15.14,0,0,0-3.08.85l-.12-.12v-1.93a15.19,15.19,0,0,1-2.15,1.48,3.48,3.48,0,0,1-1.9.55c-1.5,0-3-.78-3-3.55v-4.63c0-1.47-.38-1.6-.9-1.75l-.8-.17v-.25c.57,0,2.42-.35,3-.48a31.9,31.9,0,0,0-.07,3.25Z" transform="translate(-125.17 -223.8)"/><path class="cls-9" d="M240.8,241.63c.13.35.45.48,1.43.45H248l.1.28c-2.3,3.12-4.7,6.3-6.85,9.57h3.2c2,0,2.42-.57,3.82-2.42l.35.22c-.22.65-.62,1.65-1.07,2.75h-8.13l0-.2c2.38-3.12,4.65-6.35,6.83-9.65h-2.58c-2.05,0-2.45.63-3.55,2.4l-.4-.12c.23-.73.6-2.35.8-3.3Z" transform="translate(-125.17 -223.8)"/><path class="cls-9" d="M251,241.63c.12.35.45.48,1.42.45h5.8l.1.28c-2.3,3.12-4.7,6.3-6.85,9.57h3.2c2,0,2.43-.57,3.83-2.42l.35.22c-.23.65-.63,1.65-1.08,2.75h-8.12l0-.2c2.37-3.12,4.65-6.35,6.82-9.65h-2.57c-2.05,0-2.45.63-3.55,2.4l-.4-.12c.22-.73.6-2.35.8-3.3Z" transform="translate(-125.17 -223.8)"/><path class="cls-9" d="M259.43,252.13c1.6-.1,1.85-.45,1.85-2V238.44c0-1.73-.2-1.9-1.8-2.05v-.3a10.14,10.14,0,0,0,3-.85v14.89c0,1.55.22,1.9,1.87,2v.35h-4.92Z" transform="translate(-125.17 -223.8)"/><path class="cls-9" d="M274.23,250.58a5.92,5.92,0,0,1-3.75,2.18,4.77,4.77,0,0,1-4.78-5c0-3.68,3-5.95,5-5.95a3.66,3.66,0,0,1,3.7,3.52c0,.5,0,.58-.43.65s-3.6.35-7.05.45c0,3.8,2.25,5.15,4,5.15a4,4,0,0,0,3-1.37Zm-7.13-5,5.18-.07c.62,0,.62-.25.62-.4a2.66,2.66,0,0,0-2.85-2.65C268.8,242.51,267.48,243.61,267.1,245.63Z" transform="translate(-125.17 -223.8)"/><path class="cls-9" d="M289.73,240.46c-.43-1.45-1-3.42-3.45-3.42a2.53,2.53,0,0,0-2.7,2.79c0,2.1,1.52,2.93,3.15,3.75,1.1.55,4.17,1.63,4.17,4.75,0,2.6-2,4.48-5.15,4.53a10.21,10.21,0,0,1-2.52-.4,4.7,4.7,0,0,1-1.08-.48,29.35,29.35,0,0,1-.6-3.95h.4c.4,1.35,1.48,4.18,4.4,4.18,1.93,0,3.1-1.05,3.1-3.25,0-2.53-2.05-3.38-3.37-4.13-.23-.12-3.9-1.3-3.9-4.35,0-2.07,1.7-4,4.65-4a8.38,8.38,0,0,1,2.92.53c.1.84.23,1.77.4,3.47Z" transform="translate(-125.17 -223.8)"/><path class="cls-9" d="M304,247.08a5.57,5.57,0,0,1-5.5,5.68,5.35,5.35,0,0,1-5.55-5.23,5.6,5.6,0,0,1,5.5-5.72A5.37,5.37,0,0,1,304,247.08Zm-9.47-.37c0,3.2,1.67,5.47,4.32,5.47,2.1,0,3.63-1.35,3.63-4.72,0-2.43-1.48-5.05-4.25-5.05C295.88,242.41,294.48,244.21,294.48,246.71Z" transform="translate(-125.17 -223.8)"/><path class="cls-9" d="M305.4,252.13c1.6-.1,1.85-.45,1.85-2V238.44c0-1.73-.2-1.9-1.8-2.05v-.3a10,10,0,0,0,3-.85v14.89c0,1.55.23,1.9,1.88,2v.35H305.4Z" transform="translate(-125.17 -223.8)"/><path class="cls-9" d="M322.55,242.43c-1.37.23-1.55.45-2.42,2s-2.35,4.78-3.8,8.28h-.4c-.95-2.8-2.08-5.63-3.1-8.25-.68-1.6-.78-1.85-2.33-2.08v-.35h4.55v.35c-.9.18-1.27.28-1.27.75a3.23,3.23,0,0,0,.3,1.08c.52,1.37,1.57,4.37,2.42,6.45,1-2.15,3-6.55,3-7.38,0-.57-.42-.75-1.37-.9v-.35h4.42Z" transform="translate(-125.17 -223.8)"/><path class="cls-9" d="M331.45,250.58a5.87,5.87,0,0,1-3.75,2.18,4.76,4.76,0,0,1-4.77-5c0-3.68,3-5.95,5-5.95a3.66,3.66,0,0,1,3.7,3.52c0,.5,0,.58-.42.65s-3.6.35-7.05.45c0,3.8,2.25,5.15,4,5.15a4,4,0,0,0,3-1.37Zm-7.12-5,5.17-.07c.63,0,.63-.25.63-.4a2.66,2.66,0,0,0-2.85-2.65C326,242.51,324.7,243.61,324.33,245.63Z" transform="translate(-125.17 -223.8)"/><path class="cls-9" d="M333.13,252.13c1.52-.1,1.77-.45,1.77-2v-4.9c0-1.83-.17-2-1.72-2.15v-.3a8.74,8.74,0,0,0,2.92-1v3h0c.6-1.35,2-2.95,3.18-2.95a1.22,1.22,0,0,1,1.22,1.05,1,1,0,0,1-.87.92.22.22,0,0,1-.23-.12,1.34,1.34,0,0,0-1.05-.53c-.67,0-1.65,1.13-2.3,3v4.08c0,1.55.23,1.87,2.23,2v.35h-5.2Z" transform="translate(-125.17 -223.8)"/><path class="cls-9" d="M199.19,263.53a1,1,0,0,1,.26,0,1.93,1.93,0,0,1,1.94,2,2.43,2.43,0,0,1-2.51,2.38,3.26,3.26,0,0,1-1.4-.28v-5.46c0-.64,0-.71-.72-.82v-.11a4.07,4.07,0,0,0,1.2-.34V264Zm-1.23,3a1.13,1.13,0,0,0,.06.41,1.25,1.25,0,0,0,1.22.66c1,0,1.57-.76,1.57-1.87a1.68,1.68,0,0,0-1.7-1.8,2.52,2.52,0,0,0-1.15.25Z" transform="translate(-125.17 -223.8)"/><path class="cls-9" d="M201.77,263.62h1.82v.14c-.35.07-.52.13-.52.33a.51.51,0,0,0,.08.25l1.07,2.66a15.08,15.08,0,0,0,1.12-2.86c0-.26-.17-.32-.58-.38v-.14h1.87v.14c-.56.07-.6.19-.91.72s-.66,1.33-1.49,3a16.27,16.27,0,0,0-1.14,2.6.27.27,0,0,1-.28.2.45.45,0,0,1-.45-.41c0-.14.11-.21.24-.31a4.14,4.14,0,0,0,1.23-1.93c0-.12-.59-1.77-1.15-3.15-.22-.51-.29-.66-.91-.76Z" transform="translate(-125.17 -223.8)"/><path class="cls-9" d="M208.91,266.42c.19.64.63,1.25,1.24,1.25a.74.74,0,0,0,.8-.79c0-.53-.34-.79-.83-1s-1.18-.57-1.18-1.2a1.28,1.28,0,0,1,1.42-1.18,1.83,1.83,0,0,1,.78.16,7.25,7.25,0,0,1,.19,1l-.14.06c-.17-.5-.54-1-1.05-1a.7.7,0,0,0-.74.74c0,.49.49.73.89.89.7.27,1.19.63,1.19,1.28a1.35,1.35,0,0,1-1.5,1.25,1.59,1.59,0,0,1-1.07-.33,6.51,6.51,0,0,1-.15-1.09Z" transform="translate(-125.17 -223.8)"/><path class="cls-9" d="M213.93,267.78a.74.74,0,0,1-.41.11c-.56,0-.83-.4-.83-1.08v-2.87H212l0-.11.26-.21h.48v-.55l.34-.68h.14v1.24h1.2a.27.27,0,0,1,0,.12.26.26,0,0,1-.1.2h-1.13v2.6c0,.81.27,1,.6,1a1.37,1.37,0,0,0,.69-.2l.08.15Z" transform="translate(-125.17 -223.8)"/><path class="cls-9" d="M217.8,267.89a.89.89,0,0,1-.32-.18,1,1,0,0,1-.22-.47,2.5,2.5,0,0,1-1.21.65,1.12,1.12,0,0,1-1.15-1.14c0-.45.31-.77,1-1a7.72,7.72,0,0,0,1.37-.53c0-.49,0-1.36-.91-1.36-.16,0-.7.05-.87.85a.22.22,0,0,1-.21.17.32.32,0,0,1-.3-.34.43.43,0,0,1,.28-.36,4.93,4.93,0,0,1,1.4-.69,1.1,1.1,0,0,1,1.11,1.2v2.15c0,.41.15.57.36.57a.85.85,0,0,0,.44-.13l.09.17Zm-.54-2.4c-.21.12-.84.36-1.06.45-.45.17-.72.36-.72.73a.77.77,0,0,0,.78.79,1.5,1.5,0,0,0,1-.51Z" transform="translate(-125.17 -223.8)"/><path class="cls-9" d="M219,267.64c.6,0,.7-.18.7-.81v-2c0-.73-.07-.79-.68-.86v-.12a3.52,3.52,0,0,0,1.16-.42v1.22h0c.24-.54.78-1.18,1.27-1.18a.49.49,0,0,1,.49.42.41.41,0,0,1-.35.37.09.09,0,0,1-.09-.05.54.54,0,0,0-.42-.21c-.27,0-.66.45-.92,1.18v1.63c0,.62.09.75.89.79v.14H219Z" transform="translate(-125.17 -223.8)"/><path class="cls-9" d="M225.14,261.22a5.66,5.66,0,0,0,1.33-.34v5.88c0,.49.12.59.45.63l.36,0v.12a7.12,7.12,0,0,0-1.29.35v-.71l-.58.32a2.78,2.78,0,0,1-1,.39,2,2,0,0,1-1.9-2,2.46,2.46,0,0,1,2.63-2.37,3.59,3.59,0,0,1,.88.11v-1.48c0-.68-.08-.71-.85-.79Zm.85,3.1a1.66,1.66,0,0,0-1.32-.52,1.59,1.59,0,0,0-1.61,1.81,1.67,1.67,0,0,0,1.64,1.83,2.12,2.12,0,0,0,1.29-.54Z" transform="translate(-125.17 -223.8)"/><path class="cls-9" d="M228.79,266.17c0,1,.48,1.26,1,1.26a1.92,1.92,0,0,0,1.3-.62v-2.2c0-.59-.14-.63-.5-.7l-.38-.06v-.11a7.5,7.5,0,0,0,1.36-.18v3.26c0,.5.11.55.5.58l.3,0v.14a5.91,5.91,0,0,0-1.23.34l-.05,0v-.77a6.12,6.12,0,0,1-.86.59,1.37,1.37,0,0,1-.76.22c-.6,0-1.2-.31-1.2-1.42v-1.85c0-.59-.15-.64-.35-.7l-.32-.07v-.1c.22,0,1-.14,1.18-.19a11.89,11.89,0,0,0,0,1.3Z" transform="translate(-125.17 -223.8)"/><path class="cls-9" d="M233,266.42c.19.64.64,1.25,1.25,1.25a.74.74,0,0,0,.8-.79c0-.53-.34-.79-.83-1s-1.19-.57-1.19-1.2a1.29,1.29,0,0,1,1.43-1.18,1.83,1.83,0,0,1,.78.16,7.25,7.25,0,0,1,.19,1l-.14.06c-.17-.5-.54-1-1.05-1a.7.7,0,0,0-.74.74c0,.49.49.73.89.89.7.27,1.19.63,1.19,1.28a1.35,1.35,0,0,1-1.5,1.25,1.65,1.65,0,0,1-1.08-.33,6.64,6.64,0,0,1-.14-1.09Z" transform="translate(-125.17 -223.8)"/><path class="cls-9" d="M238.07,267.78a.74.74,0,0,1-.41.11c-.56,0-.83-.4-.83-1.08v-2.87h-.71l0-.11.27-.21h.47v-.55l.34-.68h.14v1.24h1.2a.27.27,0,0,1,0,.12.26.26,0,0,1-.1.2h-1.13v2.6c0,.81.27,1,.6,1a1.37,1.37,0,0,0,.69-.2l.08.15Z" transform="translate(-125.17 -223.8)"/></svg>